{
	"buffers":[{
		"uri":"data:application/octet-stream;base64,",
		"byteLength":68000
	},
	{
		"uri":"data:application/octet-stream;base64,",
		"byteLength":4840
	}],
	"asset":{
		"version":"2.0",
		"generator":"Created using the official Cinema 4D glTF Exporter 1.000x290161"
	},
	"scenes":[{
		"nodes":[0]
	}],
	"nodes":[{
		"name":"Boole.1",
		"children":[1,
		2]
	},
	{
		"name":"Extrude",
		"mesh":0
	},
	{
		"name":"Extrude.1",
		"translation":[0.0,
		0.0,
		0.774554431438446],
		"rotation":[0.0,
		0.0,
		0.0,
		-1.0],
		"scale":[1.0,
		1.0,
		1.0],
		"mesh":1
	}],
	"meshes":[{
		"primitives":[{
			"attributes":{
				"POSITION":1,
				"NORMAL":2,
				"TEXCOORD_0":3
			},
			"indices":0,
			"material":0
		}]
	},
	{
		"primitives":[{
			"attributes":{
				"POSITION":5,
				"NORMAL":6,
				"TEXCOORD_0":7
			},
			"indices":4,
			"material":0
		}]
	}],
	"accessors":[{
		"bufferView":0,
		"type":"SCALAR",
		"componentType":5123,
		"count":5184,
		"byteOffset":0,
		"min":[0],
		"max":[1800]
	},
	{
		"bufferView":1,
		"type":"VEC3",
		"componentType":5126,
		"count":1801,
		"byteOffset":0,
		"min":[-10.665456771850586,
		-9.55046558380127,
		-5.0],
		"max":[10.666459083557129,
		9.550336837768555,
		8.881784197001253e-16]
	},
	{
		"bufferView":1,
		"type":"VEC3",
		"componentType":5126,
		"count":1801,
		"byteOffset":12,
		"min":[-1.0,
		-0.9999992847442627,
		-1.0],
		"max":[0.9999997615814209,
		0.9999871253967285,
		1.0]
	},
	{
		"bufferView":1,
		"type":"VEC2",
		"componentType":5126,
		"count":1801,
		"byteOffset":24,
		"min":[0.0,
		0.0],
		"max":[1.0,
		1.0]
	},
	{
		"bufferView":2,
		"type":"SCALAR",
		"componentType":5123,
		"count":372,
		"byteOffset":0,
		"min":[0],
		"max":[127]
	},
	{
		"bufferView":3,
		"type":"VEC3",
		"componentType":5126,
		"count":128,
		"byteOffset":0,
		"min":[-1.066474199295044,
		-2.560011386871338,
		-5.774554252624512],
		"max":[1.059563159942627,
		6.4400763511657719,
		-0.774554431438446]
	},
	{
		"bufferView":3,
		"type":"VEC3",
		"componentType":5126,
		"count":128,
		"byteOffset":12,
		"min":[-0.9997825622558594,
		-0.4746873378753662,
		-2.995396641836123e-8],
		"max":[0.9999871850013733,
		0.9999972581863403,
		4.791311791763064e-9]
	},
	{
		"bufferView":3,
		"type":"VEC2",
		"componentType":5126,
		"count":128,
		"byteOffset":24,
		"min":[0.0,
		0.11065062880516052],
		"max":[1.0,
		0.8249362707138062]
	}],
	"bufferViews":[{
		"buffer":0,
		"byteOffset":0,
		"byteLength":10368,
		"target":34963
	},
	{
		"buffer":0,
		"byteOffset":10368,
		"byteLength":57632,
		"target":34962,
		"byteStride":32
	},
	{
		"buffer":1,
		"byteOffset":0,
		"byteLength":744,
		"target":34963
	},
	{
		"buffer":1,
		"byteOffset":744,
		"byteLength":4096,
		"target":34962,
		"byteStride":32
	}],
	"materials":[{
		"pbrMetallicRoughness":{
			"baseColorFactor":[1.0,
			1.0,
			1.0,
			1.0],
			"metallicFactor":0.0,
			"roughnessFactor":0.5
		},
		"emissiveFactor":[0.0,
		0.0,
		0.0],
		"alphaMode":"OPAQUE",
		"doubleSided":true,
		"name":"Mat.4"
	}]
}